<svg width="100" height="60" xmlns="http://www.w3.org/2000/svg"><defs><linearGradient x1="102.294%" y1="50.018%" x2="0%" y2="50%" id="a"><stop stop-color="#F7941F" offset="0%"/><stop stop-color="#FFD006" offset="29.188%"/><stop stop-color="#A7CA80" offset="40.627%"/><stop stop-color="#00B6C5" offset="52.403%"/><stop stop-color="#02ABC5" offset="100%"/></linearGradient><linearGradient x1="102.294%" y1="50.034%" x2="0%" y2="50%" id="b"><stop stop-color="#F7941F" offset="0%"/><stop stop-color="#FFD006" offset="29.188%"/><stop stop-color="#A7CA80" offset="40.627%"/><stop stop-color="#00B6C5" offset="52.403%"/><stop stop-color="#02ABC5" offset="100%"/></linearGradient></defs><g fill="none" fill-rule="evenodd"><path d="M71.33 12.272l-8.528 4.63.814 2.832c.017.057.032.114.046.172l.344 1.408 9.43-5.12c1.408-.738 5.689-2.981 9.39-2.981 1.68 0 3.015.449 4.081 1.372l4.668 4.68c-4.85 1.205-10.542 6.37-17.562 12.744l-6.114 5.197 1.185 4.837 7.874-6.696c6.448-5.852 12.54-11.382 16.22-11.867.053-.023.29-.073.71-.15.42-.079.643-.113.668-.104l.011.026c.053.15.097.301.133.455a.977.977 0 01.121.055 2.233 2.233 0 002.65.835 2.223 2.223 0 001.385-2.524l-.032-.146-.034-.1-.038-.118h-.003c-.544-1.963-2.107-3.699-2.874-4.456-.126-.124-.23-.222-.305-.29l-5.555-5.568c-.033-.033-.066-.064-.1-.095-1.899-1.683-4.284-2.537-7.087-2.538-4.802.001-9.818 2.63-11.497 3.51zm23.418 11.374v.001-.001zM9.425 11.298a1.73 1.73 0 00-.098.094l-5.5 5.504C2.582 18.166.584 20.499.265 22.543a7.054 7.054 0 00-.052.213c-.011.11-.017.219-.017.326 0 1.04.707 1.971 1.723 2.2 1.015.229 2.04-.243 2.49-1.181a1.15 1.15 0 01.118-.17c.017-.096.036-.192.06-.286.233-.153.784-.223 1.284-.193.067.004.136.01.21.02 3.662.401 9.998 6.156 16.124 11.721.03.028.062.055.095.08l8.075 6.553 1.208-4.754-6.423-5.211c-6.703-6.088-12.56-11.402-17.4-12.6l4.67-4.676c1.026-.884 2.329-1.298 4.096-1.298 4.986 0 10.545 3.225 15.069 5.848l3.995 2.173.37-1.455.828-2.96-3.008-1.635c-4.93-2.86-11.068-6.42-17.253-6.42-2.867 0-5.257.828-7.102 2.46zm48.803 8.087c-.343.136-.846.33-1.422.543l.45 1.561.677 2.767a71.089 71.089 0 002.077-.79c.08-.033.158-.07.235-.11l1.816-.986-.496-2.022-.689-2.4-2.648 1.437zM38.213 20.4l-.522 2.051 1.823.99c.041.024.084.045.127.065.751.348 1.464.653 2.15.919l.731-2.88.409-1.457c-.432-.177-.88-.372-1.347-.588l-2.707-1.472-.664 2.372zm14.963.714a16.033 16.033 0 01-1.945.351c-2.077.24-4.07.03-6.28-.649l-.373 1.328-.755 2.972c3.091.923 5.977 1.126 8.975.618a18.492 18.492 0 002.304-.535c.206-.06.416-.125.626-.192l-.711-2.904-.405-1.41c-.513.165-1.008.313-1.436.42zM32.508 42.846l-.158.583 3.783 3.07.689-2.52.56-2.202-3.816-3.095-1.058 4.164zm29.767-.86l1.165 4.758c.264-.19.53-.386.797-.585.037-.028.075-.058.11-.088l2.912-2.476-1.184-4.838-3.8 3.23zm-23.385 2.54l-.94 3.446.795.646c.076.061.157.119.241.17 4.053 2.475 7.548 3.68 10.683 3.68H49.756c.023 0 .046 0 .07-.002h.012c3.365-.046 7.174-1.484 11.554-4.332l-1.125-4.598c-4.01 2.81-7.41 4.31-10.127 4.468l-.01.001-.051.003-.024.001-.04.002c-.013 0-.025 0-.036.002h-.032l-.044.002-.024.001h-.069c-.021.002-.042.002-.062.002h-.078-.002c-2.229 0-4.997-.992-8.228-2.948l-2.23-1.809-.32 1.264z" fill="url(#a)" transform="translate(.505)"/><path d="M38.823 0a2.376 2.376 0 00-2.322 1.79c-.281 1.075.178 2.16 1.129 2.692.039.024.987.592 1.812 1.858.739 1.132 1.515 3.075 1.05 5.924l-2.28 8.136-5.704 22.446-2.392 8.767c-.423 1.753-1.484 2.971-3.066 3.52a5.726 5.726 0 01-1.884.31c-1.56 0-3.2-.591-4.635-1.716-4.179-3.268-6.148-7.261-10.07-15.22L6.627 30.93c-1.739-3.523-2.487-5.515-2.037-7.307L.263 22.543c-.855 3.419.502 6.577 2.375 10.375l3.412 6.72.409.829c4.088 8.297 6.34 12.867 11.32 16.762 2.222 1.739 4.814 2.655 7.348 2.665H25.24a10.14 10.14 0 003.276-.56c3-1.041 5.163-3.477 5.92-6.617l2.385-8.738 5.7-22.434 2.297-8.196a2.19 2.19 0 00.05-.221c.68-3.928-.289-6.82-1.359-8.679h3.327c5.664 0 6.33 2.55 7.117 5.555l3.303 11.485 7.63 31.15c.761 3.206 2.917 5.644 5.917 6.692a10.2 10.2 0 003.364.563c2.55 0 5.157-.917 7.393-2.665 4.96-3.88 6.62-7.249 10.629-15.385l4.757-9.425c1.143-2.316 1.962-4.35 2.236-6.297v-.005l.004-.026.002-.023.002-.01c.192-1.43.088-2.815-.399-4.23l.001-.001-.014-.04-4.21 1.465c.591 1.693.166 3.577-1.612 7.183l-4.306 8.504-.463.942c-3.903 7.924-5.22 10.593-9.38 13.846-1.436 1.125-3.075 1.718-4.636 1.718a5.765 5.765 0 01-1.898-.314c-1.58-.553-2.634-1.768-3.053-3.533l-7.654-31.25L58.252 8.83C57.445 5.744 55.947 0 46.834 0h-8.01zm1.007.613c.002.003.008.004.01.007-.002-.003-.008-.004-.01-.007z" fill="url(#b)" transform="translate(.505)"/></g></svg>