<?xml version="1.0" encoding="UTF-8"?>
<svg viewBox="0 0 304 66" version="1.1" xmlns="http://www.w3.org/2000/svg" xmlns:xlink="http://www.w3.org/1999/xlink">
    <title>SMARTPASS-EN</title>
    <defs>
        <rect id="path-1" x="0" y="0" width="300" height="60" rx="12"></rect>
        <filter x="-1.3%" y="-6.7%" width="102.7%" height="116.7%" filterUnits="objectBoundingBox" id="filter-2">
            <feOffset dx="0" dy="2" in="SourceAlpha" result="shadowOffsetOuter1"></feOffset>
            <feGaussianBlur stdDeviation="1" in="shadowOffsetOuter1" result="shadowBlurOuter1"></feGaussianBlur>
            <feComposite in="shadowBlurOuter1" in2="SourceAlpha" operator="out" result="shadowBlurOuter1"></feComposite>
            <feColorMatrix values="0 0 0 0 0   0 0 0 0 0   0 0 0 0 0  0 0 0 0.12 0" type="matrix" in="shadowBlurOuter1" result="shadowMatrixOuter1"></feColorMatrix>
            <feOffset dx="0" dy="0" in="SourceAlpha" result="shadowOffsetOuter2"></feOffset>
            <feGaussianBlur stdDeviation="1" in="shadowOffsetOuter2" result="shadowBlurOuter2"></feGaussianBlur>
            <feComposite in="shadowBlurOuter2" in2="SourceAlpha" operator="out" result="shadowBlurOuter2"></feComposite>
            <feColorMatrix values="0 0 0 0 0   0 0 0 0 0   0 0 0 0 0  0 0 0 0.12 0" type="matrix" in="shadowBlurOuter2" result="shadowMatrixOuter2"></feColorMatrix>
            <feMerge>
                <feMergeNode in="shadowMatrixOuter1"></feMergeNode>
                <feMergeNode in="shadowMatrixOuter2"></feMergeNode>
            </feMerge>
        </filter>
        <path d="M11.0474518,24.8929754 C10.252793,24.8929754 9.45008767,24.7754028 8.64094148,24.5324929 C6.24087202,24.0655512 4.49058691,22.2681804 4.01411423,19.8241787 C3.80699973,18.7616461 3.83865562,17.691864 3.83168071,16.6215668 C3.82578106,15.6638008 3.88104625,14.7243606 3.44427963,13.7948929 C3.04131586,12.9403111 3.19906839,11.964256 3.75978114,11.2377712 C4.34088454,10.4863369 4.63063336,9.62509442 4.99979073,8.78493778 C5.3190485,8.05845307 5.71020585,7.37907101 6.18345989,6.74855794 C6.95504697,5.72091069 6.88046282,4.95839981 5.82020217,4.23967968 C4.76584829,3.52537542 3.64173466,2.91867127 2.54874642,2.26427569 C1.77662527,1.94430889 1.00450412,1.62540926 0.23238297,1.30654643 C0.156727124,1.22669272 0.0816053452,1.14794299 0.00594949964,1.06808929 L1.20625304,0.285596587 C1.47775815,0.517945106 1.78467543,0.665472063 2.09642067,0.798573836 C2.4081659,0.931086825 2.72420503,1.04865944 3.01448792,1.21948013 C2.98712236,1.31210307 2.96726933,1.40803791 2.94526936,1.50342077 C2.96726933,1.40803791 2.98712236,1.31210307 3.01448792,1.21948013 C4.29688459,1.73245738 5.48753221,2.42401989 6.59447026,3.26031265 C8.16769101,4.45094241 8.3383181,5.90560458 7.1718174,7.50941286 C6.77314752,8.0573123 6.4281335,8.65735585 6.13087571,9.27182458 C5.7043062,10.1536008 5.49665406,11.1279632 4.80877299,11.8977235 C4.35269097,12.4079408 4.38112822,13.14495 4.73579815,13.7488942 C5.01534987,14.2247046 5.06847167,14.7049675 5.06095914,15.2301252 C5.04754339,16.1634936 5.04700932,17.0979291 5.05935694,18.0312607 C5.07169743,18.910277 5.18115612,19.6611594 5.40437095,20.3099984 C5.49397661,20.5695413 5.60021666,20.8118623 5.72684736,21.039795 C5.94093678,21.4246751 6.208148,21.7662797 6.53545593,22.0724101 C7.08060954,22.5826274 7.79049059,22.9946652 8.68816719,23.3418264 C9.18503052,23.4377612 9.6808186,23.5104023 10.1776819,23.550918 C10.3440187,23.5647544 10.5098178,23.5741749 10.675617,23.5802835 C11.3398887,23.6046812 12.0052322,23.5658583 12.6754072,23.4444218 C15.0497204,23.014095 16.506504,21.4779232 16.7356185,19.0095238 C16.8348836,17.9469543 16.8059087,16.8699965 16.8268335,15.7996625 C16.8423962,15.0465721 16.7957152,14.3178795 17.2153098,13.6024712 C17.529202,13.0667522 17.5055927,12.3064493 17.0580949,11.8433714 C16.4072389,11.1690308 16.1958305,10.3166569 15.8610136,9.49975722 C15.5599959,8.7666119 15.1704479,8.08340275 14.687538,7.45726876 C13.5875712,6.03314971 13.7694707,4.41046357 15.188154,3.34682696 C15.6871643,2.97302331 16.2070993,2.63807934 16.7350809,2.31862772 L17.8114418,3.15492048 C17.1423385,3.52151153 16.4855757,3.91025556 15.8695978,4.3783013 C15.1597167,4.91678021 14.9896237,5.80632103 15.3963438,6.27550754 C16.6385003,7.70463124 16.9395144,9.63561892 18.0630939,11.1058102 C18.6586848,11.886095 18.8110717,12.8981763 18.4413553,13.7693912 C18.0126424,14.7814725 18.0883019,15.7841333 18.0523414,16.8100878 C18.0196209,17.7423522 18.0314416,18.6856563 17.8930116,19.6023547 C17.5769582,21.6886707 16.5231384,23.2713932 14.6091975,24.1121386 C13.4464531,24.6234231 12.257956,24.8929754 11.0517492,24.8929754 L11.0474589,24.8929754" id="path-3"></path>
        <linearGradient x1="0.000284000707%" y1="50.0012711%" x2="116.655335%" y2="50.0012711%" id="linearGradient-5">
            <stop stop-color="#5B1016" offset="0%"></stop>
            <stop stop-color="#EE2533" offset="100%"></stop>
        </linearGradient>
        <path d="M0.080526531,1.31986481 C0.365621854,1.15708611 0.648436714,0.9884125 0.936896655,0.8346 C1.12901636,0.677072222 1.3222576,0.518801389 1.53351825,0.344876852 L2.85244862,1.55501713 L2.79214718,1.64086481 C2.24397609,1.90063704 1.69636577,2.15971574 1.14703576,2.41948796 C1.07379923,2.47472176 0.998319631,2.52698333 0.924484952,2.58073102 L0.080526531,1.31986481" id="path-6"></path>
        <linearGradient x1="-730.979544%" y1="50.013958%" x2="99.9982467%" y2="50.013958%" id="linearGradient-8">
            <stop stop-color="#5B1016" offset="0%"></stop>
            <stop stop-color="#EE2533" offset="100%"></stop>
        </linearGradient>
        <polyline id="path-9" points="5.46906608 4.04069038 4.38733206 3.24734712 3.80617232 2.82099327 0.243381973 4.47692115 3.84700163 0.266265385 10.8872187 8.01306538 5.46906608 4.04069038"></polyline>
        <linearGradient x1="-733.494876%" y1="49.999513%" x2="199.234003%" y2="49.999513%" id="linearGradient-11">
            <stop stop-color="#B4DF53" offset="0%"></stop>
            <stop stop-color="#47792D" offset="100%"></stop>
        </linearGradient>
        <path d="M22.7070425,22.6573869 C21.9343782,22.6541733 21.1557533,22.6122184 20.3922905,22.5325575 C19.6391178,22.4540036 18.8837786,22.3367082 18.1441404,22.1844207 C16.6913978,21.8830592 15.2613948,21.4385867 13.8952846,20.8612151 C12.5546231,20.2945912 11.2605293,19.5934258 10.0498201,18.7792855 C8.85156384,17.9726793 7.72315395,17.0471353 6.69762369,16.0279692 C5.67263595,15.0088031 4.74132278,13.8884453 3.92912923,12.6971032 C3.11043609,11.4944423 2.40599415,10.2073001 1.83475248,8.87548932 C1.25376321,7.51786285 0.80597062,6.0961792 0.503834934,4.65242903 C0.350604154,3.9190208 0.232562416,3.16725951 0.152968497,2.4187832 C0.072832047,1.66005918 0.0305972923,0.88680267 0.0268067635,0.119437709 L0.0262678257,0.0618790879 L5.87676761,0.0618790879 L5.87676761,0.118366518 C5.88272466,1.25107875 6.00346828,2.38111301 6.23413363,3.48097542 C6.45938087,4.55180857 6.79237972,5.60543126 7.22446767,6.61167164 C7.64843203,7.60016596 8.17148548,8.55477497 8.78008992,9.446398 C9.38273729,10.3305227 10.0741836,11.1613378 10.8343984,11.9173839 C11.5946097,12.6728943 12.4311704,13.3600271 13.3202524,13.9595009 C14.2179969,14.563795 15.1780103,15.0830366 16.1726738,15.504907 C17.185751,15.9337759 18.245935,16.2647379 19.323444,16.4896522 C20.4296533,16.7178157 21.5672646,16.8372534 22.7070425,16.8437162 L22.7633543,16.8440733 L22.7633543,22.6577796 L22.7070425,22.6570655" id="path-12"></path>
        <linearGradient x1="2.42842979%" y1="50.0722792%" x2="13.1513907%" y2="52.4698716%" id="linearGradient-14">
            <stop stop-color="#B4DF53" offset="0%"></stop>
            <stop stop-color="#47792D" offset="100%"></stop>
        </linearGradient>
        <path d="M0.315702289,15.1714955 L0.315702289,15.115821 C0.319088615,14.3995423 0.361127427,13.6770506 0.441881987,12.9675371 C0.520396363,12.2684474 0.638724251,11.5667345 0.790703284,10.8801052 C1.09128991,9.53080065 1.53768948,8.20331032 2.11587293,6.93411774 C2.68452257,5.6872571 3.38608734,4.48464613 4.20317048,3.35797065 C5.01072352,2.24220226 5.93884836,1.19249774 6.96118747,0.235917742 L7.00324861,0.196914516 L10.8206161,3.73768258 L10.778555,3.77668581 C10.0012854,4.50545935 9.29467833,5.30702742 8.67891783,6.15750484 C8.05755315,7.0157829 7.52423293,7.93284194 7.08961107,8.88317452 C6.64938132,9.85069613 6.31009755,10.8613629 6.07960786,11.8902542 C5.84463408,12.9451706 5.72069829,14.0307719 5.71452848,15.1168565 L5.71452848,15.1714955 L0.315702289,15.1714955" id="path-15"></path>
        <linearGradient x1="6.96858228%" y1="48.5909849%" x2="3.78600097%" y2="50.0212091%" id="linearGradient-17">
            <stop stop-color="#B4DF53" offset="0%"></stop>
            <stop stop-color="#366229" offset="100%"></stop>
        </linearGradient>
        <path d="M27.7894765,9.47935701 C27.0278658,8.78113555 26.1901443,8.14743269 25.3005956,7.59573883 C24.4029524,7.03856886 23.4437757,6.56042091 22.4500751,6.17476954 C21.4374667,5.78115292 20.378436,5.47807475 19.3026753,5.27549163 C18.1993857,5.06793021 17.0631697,4.96288834 15.9264127,4.96288834 C14.7896558,4.96288834 13.653977,5.06793021 12.5506874,5.27549163 C11.4743859,5.47807475 10.4153552,5.78115292 9.40328769,6.17476954 C8.40903192,6.56042091 7.45039964,7.03856886 6.55221912,7.59573883 C5.6621404,8.14743269 4.82549333,8.78113555 4.06387909,9.47935701 L4.02285799,9.51636228 L0.348100912,6.11227543 L0.389122012,6.07473914 C1.38607838,5.1589665 2.48343312,4.32669634 3.64663723,3.60295285 C4.82333715,2.87220658 6.07884143,2.24451086 7.38076799,1.73735608 C8.70752284,1.2212072 10.0936549,0.824570409 11.5035337,0.55846433 C12.2198073,0.423917804 12.9533554,0.320900434 13.6825876,0.251868176 C14.4231522,0.182869107 15.1777499,0.147855149 15.9264127,0.147855149 C16.6745348,0.147855149 17.4302105,0.182869107 18.1707752,0.251868176 C18.9000074,0.320900434 19.6335555,0.423917804 20.3492883,0.55846433 C21.7591705,0.824570409 23.1463879,1.2212072 24.4715059,1.73735608 C25.7734504,2.24451086 27.0294776,2.87220658 28.2056331,3.60295285 C29.3704705,4.32669634 30.466217,5.1589665 31.4637178,6.07473914 L31.5047282,6.11227543 L27.8299496,9.51636228 L27.7894765,9.47935701" id="path-18"></path>
        <linearGradient x1="6.27888662%" y1="48.3281034%" x2="20.8208853%" y2="48.5292524%" id="linearGradient-20">
            <stop stop-color="#5B1016" offset="0%"></stop>
            <stop stop-color="#EE2533" offset="100%"></stop>
        </linearGradient>
        <path d="M4.86822696,14.8263342 L4.86822696,14.7716952 C4.86218234,13.6856106 4.75144215,12.6000094 4.5405816,11.5450929 C4.33372854,10.5162016 4.02922641,9.50449935 3.63315323,8.53801323 C3.24462748,7.58768065 2.76449729,6.67062161 2.20735658,5.81182581 C1.65425674,4.96186613 1.02110738,4.16029806 0.323070147,3.43152452 L0.285833925,3.39252129 L3.29345202,0.284516452 L3.33018731,0.323554194 C4.22098461,1.25203806 5.0292611,2.27209323 5.7338439,3.35507129 C6.44500565,4.44847323 7.05547932,5.61625742 7.55170625,6.82615129 C8.055514,8.05948161 8.44403975,9.34845194 8.70622951,10.6597887 C8.97549916,12.0033635 9.11439194,13.3864939 9.12043656,14.7706597 L9.12043656,14.8263342 L4.86822696,14.8263342" id="path-21"></path>
        <linearGradient x1="20.0879559%" y1="48.2726966%" x2="22.9823866%" y2="50.0181618%" id="linearGradient-23">
            <stop stop-color="#3E0B15" offset="0%"></stop>
            <stop stop-color="#EE2533" offset="100%"></stop>
        </linearGradient>
        <path d="M0.278688077,11.3423633 L0.314993393,11.3038733 C0.995579698,10.5837011 1.61290033,9.79366776 2.15217266,8.9544149 C2.69538486,8.10691904 3.1635118,7.2024375 3.5423244,6.26457523 C3.92849575,5.31032916 4.22538533,4.31190471 4.42706706,3.29757332 C4.63265609,2.25657141 4.74062778,1.18474342 4.74652129,0.112915429 L4.74652129,0.059029393 L8.31486179,0.059029393 L8.31486179,0.113937288 C8.30948925,1.43884571 8.17748768,2.76269822 7.92328534,4.04908256 C7.67500907,5.30416394 7.3069741,6.5376841 6.83051159,7.7177951 C6.36238465,8.87637893 5.78335555,9.99490588 5.11208164,11.0410511 C4.44520344,12.0784765 3.6807079,13.0553398 2.83914089,13.9433694 L2.80234716,13.9824044 L0.278688077,11.3423633" id="path-24"></path>
        <linearGradient x1="19.9836513%" y1="51.6520577%" x2="22.8279809%" y2="49.9208613%" id="linearGradient-26">
            <stop stop-color="#676C71" offset="0%"></stop>
            <stop stop-color="#28292C" offset="100%"></stop>
        </linearGradient>
        <path d="M0.197489955,8.24614641 L0.197489955,5.00364633 L0.251726002,5.00329333 C1.33075052,4.99690392 2.40873994,4.88041199 3.45625587,4.65699457 C4.47691425,4.43887225 5.48155614,4.1170015 6.44229576,3.69886606 C7.38496584,3.28764952 8.29560634,2.78119201 9.1478773,2.19121331 C9.99291632,1.60762401 10.7883601,0.937830682 11.5125127,0.199977823 L11.5517914,0.16008816 L13.7774778,2.45293185 L13.7387476,2.49285682 C12.8720128,3.37756012 11.9195573,4.18138977 10.908698,4.88041199 C9.8880362,5.58635312 8.79765995,6.19497053 7.66749095,6.6865312 C6.51719251,7.18818783 5.31368625,7.57388204 4.09055096,7.83454157 C2.83590708,8.10215532 1.54407532,8.24046301 0.252243548,8.24632291 L0.197489955,8.24632291" id="path-27"></path>
        <linearGradient x1="13.4000755%" y1="52.1948119%" x2="20.0559993%" y2="51.5210612%" id="linearGradient-29">
            <stop stop-color="#D4D7D5" offset="0%"></stop>
            <stop stop-color="#28292C" offset="100%"></stop>
        </linearGradient>
    </defs>
    <g id="Buttons" stroke="none" stroke-width="1" fill="none" fill-rule="evenodd">
        <g id="SMARTPASS-EN" transform="translate(2.000000, 2.000000)">
            <g id="Rectangle">
                <use fill="black" fill-opacity="1" filter="url(#filter-2)" xlink:href="#path-1"></use>
                <rect stroke="#231F20" stroke-width="1" stroke-linejoin="square" fill="#FFFFFF" fill-rule="evenodd" x="0.5" y="0.5" width="299" height="59" rx="12"></rect>
            </g>
            <g id="SmartPass" transform="translate(150.500000, 30.000000) scale(-1, 1) rotate(-180.000000) translate(-150.500000, -30.000000) translate(43.000000, 7.000000)">
                <g id="g178" transform="translate(55.041667, 4.000000)">
                    <g id="g180-Clipped" transform="translate(0.000000, 0.000000)">
                        <g id="g180" transform="translate(0.179695, 0.453180)">
                            <polyline id="path186" fill="#3C3E3F" points="6.07072776 23.3033138 7.38290903 23.3033138 7.38290903 14.8211521 10.9358267 14.8211521 10.9358267 13.7155742 6.07072776 13.7155742 6.07072776 23.3033138"></polyline>
                            <path d="M17.0990741,17.1638209 C17.0990741,18.6479174 16.362276,19.7096331 15.1383971,19.7096331 C13.8999255,19.7096331 13.1625676,18.6479174 13.1625676,17.1638209 C13.1625676,15.6936085 13.8999255,14.6318928 15.1238044,14.6318928 C16.362276,14.6318928 17.0990741,15.6936085 17.0990741,17.1638209 L17.0990741,17.1638209 Z M11.8211264,17.1638209 C11.8211264,19.2007064 13.1333077,20.7719381 15.1383971,20.7719381 C17.1142639,20.7719381 18.4410751,19.2007064 18.4410751,17.1638209 C18.4410751,15.1408195 17.1288938,13.5695878 15.1238044,13.5695878 C13.1333077,13.5695878 11.8211264,15.1408195 11.8211264,17.1638209 L11.8211264,17.1638209 Z" id="path188" fill="#3C3E3F" fill-rule="nonzero"></path>
                            <path d="M23.9254472,18.2399732 C23.9254472,19.0985822 23.3354713,19.7385063 22.4507314,19.7385063 C21.5958113,19.7385063 20.9912055,19.1857174 20.9912055,18.2549622 C20.9912055,17.39639 21.536769,16.7414769 22.4653614,16.7414769 C23.2915814,16.7414769 23.9254472,17.2653926 23.9254472,18.2399732 L23.9254472,18.2399732 Z M24.5593129,12.3186128 C24.5593129,13.4968893 22.4653614,13.2643202 21.286492,13.6428388 C20.9619456,13.4391797 20.4607945,13.0750608 20.4607945,12.4784465 C20.4607945,11.692536 21.286492,11.2268822 22.5103336,11.2268822 C23.8517748,11.2268822 24.5593129,11.707525 24.5593129,12.3186128 L24.5593129,12.3186128 Z M19.2661755,12.260314 C19.2661755,12.9735259 19.7082468,13.61345 20.5490968,13.9919687 C20.2392177,14.166239 20.062613,14.4859064 20.062613,14.8505409 C20.062613,15.2140705 20.2392177,15.6936085 20.8438235,16.1886879 C20.1509153,16.6110319 19.7228768,17.3675168 19.7228768,18.2838354 C19.7228768,19.6369346 20.7549614,20.7569491 22.3770591,20.7569491 C22.9968547,20.7569491 23.4389261,20.626541 23.7190228,20.4955436 C23.7927325,20.4516814 23.8225149,20.4516814 23.8810348,20.5099802 C24.2207337,20.8446367 24.677435,21.0772058 25.3996031,21.0772058 C25.5616151,21.0772058 25.7534095,21.0483326 25.8276416,21.0333436 L25.532915,20.0731628 C25.3996031,20.1025884 25.2376284,20.117025 25.1049137,20.117025 C24.8990492,20.117025 24.662805,20.0731628 24.4856406,19.9571913 C24.9575317,19.4915375 25.2078087,18.8654975 25.2078087,18.2255734 C25.2078087,16.7270403 24.0874218,15.7230341 22.4507314,15.7230341 C22.1267821,15.7230341 21.8168657,15.7668595 21.5665887,15.8539946 C21.3303446,15.5925892 21.2420423,15.3739411 21.2420423,15.1558085 C21.2420423,13.8315457 25.8422716,15.0248112 25.8422716,12.4495733 C25.8422716,11.1691727 24.5739429,10.2672907 22.3770591,10.2672907 C20.4748646,10.2672907 19.2661755,11.0237756 19.2661755,12.260314 L19.2661755,12.260314 Z" id="path190" fill="#3C3E3F" fill-rule="nonzero"></path>
                            <path d="M30.4424636,20.5971154 L31.7400522,20.5971154 L31.7400522,13.7155742 L30.4424636,13.7155742 L30.4424636,20.5971154 Z M30.265859,22.83766 C30.265859,23.2883616 30.6044756,23.6524437 31.0909594,23.6524437 C31.5926702,23.6524437 31.9464393,23.3033138 31.9464393,22.83766 C31.9464393,22.372043 31.5780403,22.0085134 31.0909594,22.0085134 C30.6044756,22.0085134 30.265859,22.372043 30.265859,22.83766 L30.265859,22.83766 Z" id="path192" fill="#3C3E3F" fill-rule="nonzero"></path>
                            <path d="M33.7001321,20.5971154 L34.7912964,20.5971154 L34.9538308,19.7534953 C35.7052588,20.3639939 36.4870664,20.7719381 37.3712092,20.7719381 C38.4775259,20.7719381 39.4949805,20.1314616 39.4949805,18.3271083 L39.4949805,13.7155742 L38.1974292,13.7155742 L38.1974292,17.9058692 C38.1974292,18.8798973 37.9612224,19.6369346 37.0028101,19.6369346 C36.295272,19.6369346 35.6169565,19.2295796 34.9982805,18.705627 L34.9982805,13.7155742 L33.7001321,13.7155742 L33.7001321,20.5971154" id="path194" fill="#3C3E3F"></path>
                            <polyline id="path196" fill="#3C3E3F" points="43.6238785 20.5971154 44.9799497 20.5971154 46.5722277 15.3739411 46.6014503 15.3739411 48.1644683 20.5971154 49.2994852 20.5971154 50.9215829 15.3595045 50.9514026 15.3595045 52.5138609 20.5971154 53.8260421 20.5971154 51.4232938 13.671712 50.3613895 13.671712 48.7544815 18.9093229 48.7252589 18.9093229 47.1031612 13.671712 45.9968444 13.671712 43.6238785 20.5971154"></polyline>
                            <path d="M54.9616188,20.5971154 L56.2586103,20.5971154 L56.2586103,13.7155742 L54.9616188,13.7155742 L54.9616188,20.5971154 Z M54.7844544,22.83766 C54.7844544,23.2883616 55.1235934,23.6524437 55.6101145,23.6524437 C56.1117881,23.6524437 56.4655945,23.3033138 56.4655945,22.83766 C56.4655945,22.372043 56.0965983,22.0085134 55.6101145,22.0085134 C55.1235934,22.0085134 54.7844544,22.372043 54.7844544,22.83766 L54.7844544,22.83766 Z" id="path198" fill="#3C3E3F" fill-rule="nonzero"></path>
                            <path d="M58.7946705,15.2573803 L58.7946705,19.564236 L57.600574,19.564236 L57.600574,20.5971154 L58.7946705,20.5971154 L58.7946705,22.1683471 L60.0922218,22.5757021 L60.0922218,20.5971154 L62.1856135,20.5971154 L61.8324043,19.564236 L60.0922218,19.564236 L60.0922218,15.5049016 C60.0922218,14.8938507 60.3430586,14.6318928 60.8003197,14.6318928 C61.2423911,14.6318928 61.6406099,14.8211521 61.9207066,14.9954224 L62.3487451,14.1084926 C61.8908868,13.7882728 61.1985385,13.5695878 60.5050332,13.5695878 C59.4285363,13.5695878 58.7946705,14.181228 58.7946705,15.2573803" id="path200" fill="#3C3E3F"></path>
                            <path d="M63.6018467,24.0159733 L64.899398,24.0159733 L64.899398,19.7679319 C65.5917837,20.3495573 66.3735539,20.7719381 67.2729238,20.7719381 C68.3640507,20.7719381 69.3961353,20.1314616 69.3961353,18.3271083 L69.3961353,13.7155742 L68.098584,13.7155742 L68.098584,17.9058692 C68.098584,18.8798973 67.848307,19.6369346 66.8898948,19.6369346 C66.1817595,19.6369346 65.5034814,19.2295796 64.899398,18.705627 L64.899398,13.7155742 L63.6018467,13.7155742 L63.6018467,24.0159733" id="path202" fill="#3C3E3F"></path>
                            <path d="M79.1134573,12.1404387 C77.9683264,12.1404387 77.0014795,12.3313553 76.2129541,12.7132253 C75.4238315,13.094506 74.8017593,13.6611792 74.3444981,14.412103 L76.2725563,15.6658401 C76.5588483,15.2024329 76.9452362,14.8510933 77.4323172,14.6107903 C77.9199579,14.3704505 78.4677606,14.2500228 79.0768824,14.2500228 C79.5459744,14.2500228 79.9492315,14.3188544 80.2872883,14.4570332 C80.6253078,14.5958013 80.8581556,14.7684143 80.9863918,14.9759772 C81.1140681,15.1835401 81.1776264,15.3894457 81.1776264,15.5931416 C81.1776264,15.990553 81.0730146,16.3174387 80.8626715,16.5760821 C80.6528509,16.8346886 80.3159511,17.068915 79.8530544,17.2792768 C79.3901951,17.4896018 78.8699355,17.691088 78.291156,17.8831094 C77.7613422,18.0640456 77.2798968,18.258866 76.8479395,18.4697434 C76.4154224,18.6795527 76.0470234,18.9265216 75.7421826,19.2090295 C75.4379017,19.4915375 75.2033743,19.8217745 75.039123,20.2002932 C74.8748718,20.5793643 74.792205,21.0266777 74.792205,21.5439644 C74.792205,22.0484718 74.8839036,22.5118791 75.0661064,22.9326027 C75.2494662,23.352737 75.5234049,23.7151618 75.8884076,24.018183 C76.2540076,24.322309 76.7123884,24.5581926 77.2635873,24.7263863 C77.8147863,24.8945431 78.4587662,24.9794686 79.1955642,24.9794686 C80.0482451,24.9794686 80.782244,24.8601457 81.3975238,24.622568 C82.012281,24.3855795 82.4824927,24.1003095 82.8087186,23.7662055 C83.1343473,23.4326539 83.3885803,23.1218252 83.5713803,22.8332406 L81.7535694,21.562268 C81.5341945,21.8863916 81.2951886,22.147797 81.0364397,22.3464843 C80.7777281,22.5451716 80.4852407,22.6906056 80.1590522,22.7833018 C79.8333861,22.8765136 79.5060405,22.9231379 79.1770155,22.9231379 C78.5318787,22.9231379 78.0459548,22.8121381 77.7202887,22.5901387 C77.3946226,22.3670344 77.2315283,22.078413 77.2315283,21.7237589 C77.2315283,21.5078729 77.2844127,21.3141942 77.3918235,21.142686 C77.4975549,20.9711778 77.6578501,20.8102393 77.8710296,20.660386 C78.0841718,20.5099802 78.3491161,20.3662404 78.6657504,20.2274723 C78.982422,20.0892935 79.350821,19.9422023 79.7715073,19.7856831 C80.8064283,19.4193913 81.6039481,19.038663 82.1647014,18.6451553 C82.7248948,18.2516477 83.1112827,17.8054023 83.3250221,17.3064559 C83.5376418,16.8075095 83.6444928,16.2813473 83.6444928,15.7285583 C83.6444928,14.8749579 83.3857812,14.1617828 82.8677609,13.5878914 C82.3503004,13.0129319 81.7400591,12.6282998 81.0364397,12.4334795 C80.3328203,12.2375543 79.6916396,12.1404387 79.1134573,12.1404387" id="path204" fill="#3C3E3F"></path>
                            <path d="M85.4808897,12.4018442 L85.4808897,21.3003101 L87.7278215,21.3003101 L87.81952,20.63317 C88.0259071,20.8130014 88.2745419,20.9745292 88.5636331,21.1154701 C88.8527242,21.2570003 89.1440547,21.3608185 89.4359823,21.4268512 C89.7284323,21.4928839 89.9815457,21.5261765 90.1946879,21.5261765 C90.6328406,21.5261765 91.0760689,21.4612486 91.5237385,21.3319454 C91.9714454,21.2026053 92.3837343,20.975634 92.7611278,20.6515104 C93.1936449,20.8979268 93.6688949,21.1054897 94.1863554,21.2730941 C94.7043757,21.4412878 95.2583738,21.5261765 95.8489468,21.5261765 C96.8781949,21.5261765 97.6763119,21.3419258 98.2427007,20.975634 C98.8090895,20.6093055 99.1740923,20.1281102 99.3389033,19.5331532 C99.5036771,18.9381961 99.5852616,18.3398877 99.5852616,17.7388171 L99.5852616,12.4018442 L97.1554925,12.4018442 L97.1554925,17.6305795 C97.1554925,18.1117748 97.0885754,18.5013786 96.9547037,18.7983232 C96.8202722,19.0963725 96.6211628,19.3050402 96.3562559,19.4249155 C96.0913489,19.5448276 95.8033774,19.6052993 95.4929011,19.6052993 C95.1762668,19.6052993 94.8382474,19.5259349 94.4788428,19.3661011 C94.1194382,19.2073723 93.8331461,19.0463969 93.6199666,18.8843535 C93.6936763,18.5241384 93.7302139,18.1539429 93.7302139,17.7749086 L93.7302139,12.4018442 L91.2999223,12.4018442 L91.2999223,17.6305795 C91.2999223,18.0573797 91.2419623,18.4231559 91.1261168,18.726177 C91.010234,19.0297506 90.83195,19.2523393 90.5917871,19.3932802 C90.3510644,19.5348104 90.0878369,19.6052993 89.8015449,19.6052993 C89.4483356,19.6052993 89.1131153,19.5198214 88.7970408,19.34835 C88.4803692,19.1773942 88.1907182,18.9709362 87.9286103,18.7306332 L87.9286103,12.4018442 L85.4808897,12.4018442" id="path206" fill="#3C3E3F"></path>
                            <path d="M105.103372,14.0968549 C105.413848,14.0968549 105.713613,14.1584683 106.002705,14.2811057 C106.292393,14.4048847 106.540431,14.5597098 106.747377,14.7456546 L106.747377,16.5582942 C106.223759,16.528353 105.70014,16.4650824 105.176485,16.3684824 C104.81708,16.3085632 104.52575,16.200878 104.303576,16.0438064 C104.081402,15.8878764 103.938573,15.7224817 103.874417,15.5482114 C103.810299,15.3739411 103.778837,15.2179743 103.778837,15.0797586 C103.778837,14.7789472 103.891324,14.539749 104.116857,14.363269 C104.34183,14.1850949 104.670295,14.0968549 105.103372,14.0968549 L105.103372,14.0968549 Z M104.50944,12.1942813 C104.107303,12.1942813 103.719198,12.2575519 103.344604,12.3835406 C102.970009,12.5100818 102.636506,12.6943325 102.344018,12.9379868 C102.052128,13.1816412 101.81928,13.4774441 101.645475,13.8260215 C101.472229,14.1745621 101.385046,14.5746988 101.385046,15.0253636 C101.385046,15.6447745 101.570683,16.1703475 101.942441,16.6032612 C102.313639,17.0356225 102.764742,17.3497657 103.294556,17.545654 C103.82437,17.7404744 104.31425,17.876996 104.765353,17.9552556 C105.160735,18.015764 105.570747,18.0668077 105.99427,18.1090127 C106.417233,18.1506283 106.662471,18.1750453 106.729389,18.1811588 L106.729389,18.4781033 C106.729389,18.7367099 106.659075,18.9626131 106.519045,19.1540821 C106.378978,19.3472452 106.213085,19.4826619 106.021291,19.5603691 C105.829496,19.6385918 105.648376,19.6774454 105.477966,19.6774454 C105.301362,19.6774454 105.095497,19.6413908 104.86097,19.5692446 C104.626405,19.4970985 104.416622,19.4021926 104.231023,19.2850794 C104.044864,19.1685187 103.881732,19.0342068 103.742263,18.8843535 L102.070117,20.028785 C102.392947,20.432273 102.796801,20.7536346 103.280486,20.99449 C103.764767,21.2342406 104.209638,21.3824366 104.614052,21.440183 C105.019586,21.4973401 105.358725,21.5261765 105.632626,21.5261765 C106.156842,21.5261765 106.638287,21.4612486 107.07644,21.3319454 C107.515115,21.2026053 107.890829,21.0017083 108.204664,20.7280759 C108.518537,20.4544804 108.763178,20.1025884 108.940343,19.6730261 C109.116387,19.2434269 109.20469,18.7278343 109.20469,18.1267638 L109.20469,12.4018442 L106.957758,12.4018442 L106.84807,13.0689842 C106.579767,12.7981139 106.245144,12.58499 105.842969,12.4290601 C105.441392,12.2725409 104.996521,12.1942813 104.50944,12.1942813 L104.50944,12.1942813 Z" id="path208" fill="#3C3E3F" fill-rule="nonzero"></path>
                            <path d="M111.580455,12.4018442 L111.580455,21.3003101 L113.809435,21.3003101 L113.919085,20.5249692 C114.259941,20.8796233 114.601357,21.1288019 114.942175,21.2730941 C115.283031,21.4179757 115.639599,21.4901218 116.010835,21.4901218 C116.230172,21.4901218 116.455705,21.4646 116.686874,21.4129671 C116.918602,21.3619234 117.162161,21.2941966 117.418073,21.210376 L116.988355,19.1185799 C116.732443,19.220704 116.496759,19.299516 116.28022,19.3527694 C116.064241,19.4071644 115.852779,19.4338279 115.645235,19.4338279 C115.377529,19.4338279 115.124975,19.3844047 114.887611,19.2850794 C114.649725,19.1862698 114.465246,19.0808311 114.334733,18.9698314 C114.203698,18.8588317 114.101885,18.7489368 114.028772,18.6406991 L114.028772,12.4018442 L111.580455,12.4018442" id="path210" fill="#3C3E3F"></path>
                            <path d="M121.546934,12.1942813 C121.236495,12.1942813 120.931617,12.2364494 120.632972,12.3208225 C120.334886,12.4046431 120.068859,12.5400598 119.834295,12.7259678 C119.599208,12.912465 119.410772,13.1572242 119.267943,13.4613502 C119.124517,13.7649606 119.053084,14.1329096 119.053084,14.5652708 L119.053084,19.4521315 L117.728512,19.4521315 L117.728512,21.3003101 L119.053084,21.3003101 L119.053084,23.6085814 L121.482816,23.6085814 L121.482816,21.3003101 L123.675781,21.3003101 L123.675781,19.4521315 L121.482816,19.4521315 L121.482816,14.9171628 C121.482816,14.7789472 121.501402,14.661834 121.53794,14.5652708 C121.574515,14.4698126 121.621204,14.3926578 121.679686,14.3360531 C121.737049,14.2783435 121.801167,14.2378327 121.871481,14.2139681 C121.941234,14.1901036 122.006472,14.1778766 122.067753,14.1778766 C122.311313,14.1778766 122.552035,14.23949 122.789399,14.363269 C123.026726,14.4859064 123.23371,14.6141048 123.410874,14.7456546 L124.296734,13.1050389 C123.87657,12.8342054 123.439574,12.6149681 122.985672,12.4468112 C122.53177,12.2792068 122.052601,12.1942813 121.546934,12.1942813" id="path212" fill="#3C3E3F"></path>
                            <path d="M127.347978,18.6406991 L129.796296,18.6406991 C130.374478,18.6406991 130.867754,18.7433757 131.275527,18.9476241 C131.68386,19.15132 131.966756,19.4432559 132.125372,19.8217745 C132.283987,20.2002932 132.362735,20.5998775 132.362735,21.0205642 C132.362735,21.862527 132.137762,22.4774817 131.686659,22.8648759 C131.236153,23.2528225 130.600011,23.4459488 129.777747,23.4459488 L127.347978,23.4459488 L127.347978,18.6406991 Z M125.849638,12.4018442 L125.849638,24.7174739 L129.741172,24.7174739 C131.172035,24.7174739 132.235059,24.4000161 132.929087,23.7662055 C133.623712,23.1318424 133.970763,22.2049542 133.970763,20.9845096 C133.970763,20.3956291 133.876265,19.8744755 133.68727,19.4204962 C133.498872,18.9670324 133.223254,18.5863041 132.86105,18.2805209 C132.498286,17.9735959 132.051139,17.7421317 131.517929,17.5862017 C130.984719,17.4291301 130.374478,17.3514229 129.686608,17.3514229 L127.347978,17.3514229 L127.347978,12.4018442 L125.849638,12.4018442 L125.849638,12.4018442 Z" id="path214" fill="#3C3E3F" fill-rule="nonzero"></path>
                            <path d="M137.981539,13.3575688 C138.419654,13.3575688 138.822949,13.4463612 139.191908,13.6239828 C139.560307,13.8010153 139.887092,14.0158332 140.173347,14.2683631 L140.173347,16.999531 C139.680668,16.9878933 139.202022,16.9534959 138.739125,16.8957495 C138.276228,16.8391448 137.838113,16.7259354 137.424145,16.5582942 C137.009616,16.3895849 136.706455,16.1648233 136.51522,15.8823154 C136.322866,15.5998075 136.227249,15.284007 136.227249,14.9354664 C136.227249,14.6529584 136.282373,14.412103 136.3915,14.2139681 C136.501188,14.0158332 136.641217,13.8532006 136.811627,13.7272119 C136.982633,13.6012231 137.171031,13.5074221 137.378015,13.4480553 C137.585,13.3875468 137.786348,13.3575688 137.981539,13.3575688 L137.981539,13.3575688 Z M137.816728,12.1942813 C137.426944,12.1942813 137.04955,12.2530957 136.68395,12.3702089 C136.318947,12.4873221 135.994401,12.6615924 135.710945,12.8930198 C135.42805,13.1244841 135.19968,13.4136211 135.025875,13.7582947 C134.852666,14.1040732 134.765484,14.5025527 134.765484,14.9532175 C134.765484,15.5726284 134.945447,16.0998587 135.304292,16.5355713 C135.663697,16.971247 136.146262,17.3092548 136.752584,17.5501102 C137.358347,17.7904132 137.953958,17.9436179 138.538336,18.0096506 C139.123274,18.0757201 139.668277,18.1151261 140.173347,18.1267638 L140.173347,18.2350014 C140.173347,18.9742507 140.009133,19.50428 139.680668,19.8261939 C139.351083,20.1475554 138.897741,20.308494 138.319558,20.308494 C137.90503,20.308494 137.525957,20.2197016 137.181742,20.0432216 C136.838087,19.8655999 136.550116,19.6264018 136.318947,19.3255903 L135.304292,20.028785 C135.5664,20.3895525 135.864485,20.6737177 136.199706,20.8807282 C136.534926,21.088291 136.899929,21.230926 137.295908,21.309738 C137.691851,21.3879976 138.075439,21.4268512 138.447235,21.4268512 C139.226206,21.4268512 139.855033,21.2853211 140.333642,21.0028131 C140.811729,20.7203052 141.14303,20.3201685 141.329189,19.8039866 C141.514788,19.2867367 141.608166,18.7333953 141.608166,18.1450673 L141.608166,12.4018442 L140.301583,12.4018442 L140.228471,13.1588815 C139.918032,12.852509 139.560307,12.6149681 139.154773,12.4468112 C138.750396,12.2792068 138.303809,12.1942813 137.816728,12.1942813 L137.816728,12.1942813 Z" id="path216" fill="#3C3E3F" fill-rule="nonzero"></path>
                            <path d="M146.778703,12.1942813 C146.139202,12.1942813 145.590802,12.2864251 145.134101,12.4695709 C144.677399,12.6527168 144.330385,12.8736114 144.093022,13.1322548 C143.855098,13.3903089 143.659945,13.6456377 143.508084,13.8981676 L144.63183,14.5835744 C144.741517,14.3910005 144.861319,14.2183875 144.992354,14.0652197 C145.123427,13.912015 145.274168,13.7810545 145.444577,13.6728168 C145.614986,13.5645792 145.810177,13.4824527 146.029514,13.4252955 C146.248292,13.367586 146.498047,13.3398176 146.778703,13.3398176 C147.405814,13.3398176 147.86871,13.4491601 148.166796,13.6683975 C148.465441,13.887598 148.614503,14.2106168 148.614503,14.637417 C148.614503,15.0886342 148.453088,15.4505066 148.130258,15.7241389 C147.807391,15.9977713 147.214019,16.2874607 146.348985,16.5943856 C145.672946,16.8224986 145.144812,17.0716771 144.764022,17.3425474 C144.383232,17.6133808 144.138031,17.9003081 144.028903,18.2033661 C143.919216,18.5069397 143.86413,18.8210829 143.86413,19.1457589 C143.86413,19.6685699 144.014833,20.1114639 144.316315,20.475546 C144.617797,20.8390756 144.991234,21.088291 145.435582,21.2237077 C145.879893,21.3591245 146.321442,21.4268512 146.760117,21.4268512 C147.484562,21.4268512 148.089168,21.3075284 148.573449,21.0705399 C149.057694,20.832999 149.469983,20.4916399 149.811398,20.0476409 L148.797303,19.2534442 C148.553744,19.5481422 148.261294,19.7929014 147.920438,19.9888266 C147.579059,20.1836101 147.19827,20.2813149 146.778703,20.2813149 C146.254487,20.2813149 145.864703,20.180848 145.608791,19.979951 C145.353475,19.7779123 145.225239,19.5303911 145.225239,19.2362455 C145.225239,19.0491958 145.260657,18.8871156 145.330411,18.7489368 C145.400127,18.6107211 145.520488,18.4814178 145.691495,18.3615426 C145.861904,18.2405256 146.090273,18.1223076 146.376528,18.0052312 C146.66282,17.888118 147.021665,17.7571207 147.454742,17.6133808 C147.862515,17.4690885 148.22192,17.3092548 148.532396,17.1349477 C148.842872,16.9606774 149.103263,16.7614377 149.313606,16.5355713 C149.523427,16.3102204 149.683162,16.0565857 149.792812,15.7740778 C149.90306,15.4910174 149.957624,15.1724548 149.957624,14.8178008 C149.957624,14.3976664 149.878316,14.0230147 149.7197,13.6955766 C149.561644,13.367586 149.340627,13.0928488 149.057694,12.8702969 C148.774238,12.6482606 148.437898,12.4795513 148.048114,12.3657895 C147.658367,12.2519909 147.234845,12.1942813 146.778703,12.1942813" id="path218" fill="#3C3E3F"></path>
                            <path d="M154.488659,12.1942813 C153.849158,12.1942813 153.301355,12.2864251 152.844616,12.4695709 C152.387355,12.6527168 152.040341,12.8736114 151.802978,13.1322548 C151.565651,13.3903089 151.37046,13.6456377 151.2186,13.8981676 L152.342383,14.5835744 C152.451473,14.3910005 152.571835,14.2183875 152.702907,14.0652197 C152.833942,13.912015 152.984124,13.7810545 153.155093,13.6728168 C153.325539,13.5645792 153.520693,13.4824527 153.73947,13.4252955 C153.958845,13.367586 154.208562,13.3398176 154.488659,13.3398176 C155.116329,13.3398176 155.579226,13.4491601 155.877312,13.6683975 C156.175995,13.887598 156.325019,14.2106168 156.325019,14.637417 C156.325019,15.0886342 156.163604,15.4505066 155.840774,15.7241389 C155.517907,15.9977713 154.923975,16.2874607 154.059501,16.5943856 C153.383462,16.8224986 152.854768,17.0716771 152.474538,17.3425474 C152.093785,17.6133808 151.848547,17.9003081 151.738859,18.2033661 C151.629769,18.5069397 151.574646,18.8210829 151.574646,19.1457589 C151.574646,19.6685699 151.725386,20.1114639 152.026831,20.475546 C152.328313,20.8390756 152.701228,21.088291 153.146098,21.2237077 C153.590446,21.3591245 154.031958,21.4268512 154.47067,21.4268512 C155.195078,21.4268512 155.799721,21.3075284 156.283965,21.0705399 C156.767687,20.832999 157.180499,20.4916399 157.521354,20.0476409 L156.507819,19.2534442 C156.264297,19.5481422 155.971809,19.7929014 155.630991,19.9888266 C155.289575,20.1836101 154.908785,20.2813149 154.488659,20.2813149 C153.965003,20.2813149 153.575256,20.180848 153.319344,19.979951 C153.063431,19.7779123 152.935755,19.5303911 152.935755,19.2362455 C152.935755,19.0491958 152.970613,18.8871156 153.040927,18.7489368 C153.11068,18.6107211 153.231042,18.4814178 153.401451,18.3615426 C153.57186,18.2405256 153.800229,18.1223076 154.086522,18.0052312 C154.372776,17.888118 154.732181,17.7571207 155.164698,17.6133808 C155.572471,17.4690885 155.932435,17.3092548 156.242912,17.1349477 C156.553388,16.9606774 156.813779,16.7614377 157.024159,16.5355713 C157.233943,16.3102204 157.393678,16.0565857 157.503366,15.7740778 C157.613016,15.4910174 157.668139,15.1724548 157.668139,14.8178008 C157.668139,14.3976664 157.588831,14.0230147 157.430216,13.6955766 C157.271637,13.367586 157.051143,13.0928488 156.767687,12.8702969 C156.484754,12.6482606 156.147854,12.4795513 155.758667,12.3657895 C155.368883,12.2519909 154.94536,12.1942813 154.488659,12.1942813" id="path220" fill="#3C3E3F"></path>
                            <polygon id="path222" fill="#BBBDBC" points="0.166191962 0.0950900123 0.761818281 0.0950900123 0.761818281 37.3117446 0.166191962 37.3117446"></polygon>
                        </g>
                    </g>
                </g>
                <g id="Group-3" transform="translate(-0.000000, 0.000000)">
                    <g id="g226-Clipped" transform="translate(12.458333, 9.583333)">
                        <mask id="mask-4" fill="white">
                            <use xlink:href="#path-3"></use>
                        </mask>
                        <g id="path228"></g>
                        <g id="g226" mask="url(#mask-4)" fill="url(#linearGradient-5)">
                            <g id="g238">
                                <polygon id="path246" points="0.00594949964 0.285044603 18.8110575 0.285044603 18.8110575 24.8929754 0.00594949964 24.8929754"></polygon>
                            </g>
                        </g>
                    </g>
                    <g id="g250-Clipped" transform="translate(31.625000, 10.541667)">
                        <mask id="mask-7" fill="white">
                            <use xlink:href="#path-6"></use>
                        </mask>
                        <g id="path252"></g>
                        <g id="g250" mask="url(#mask-7)" fill="url(#linearGradient-8)">
                            <g id="g262">
                                <polygon id="path270" points="0.080526531 0.344876852 2.8524374 0.344876852 2.8524374 2.58075083 0.080526531 2.58075083"></polygon>
                            </g>
                        </g>
                    </g>
                    <g id="g274-Clipped" transform="translate(24.916667, 9.583333)">
                        <mask id="mask-10" fill="white">
                            <use xlink:href="#path-9"></use>
                        </mask>
                        <g id="path276"></g>
                        <g id="g274" mask="url(#mask-10)" fill="url(#linearGradient-11)">
                            <g id="g286">
                                <polygon id="path294" points="0.243381973 0.266265385 10.8877359 0.266265385 10.8877359 8.01307224 0.243381973 8.01307224"></polygon>
                            </g>
                        </g>
                    </g>
                    <g id="g298-Clipped" transform="translate(0.000000, 23.000000)">
                        <mask id="mask-13" fill="white">
                            <use xlink:href="#path-12"></use>
                        </mask>
                        <g id="path300"></g>
                        <g id="g298" mask="url(#mask-13)">
                            <g transform="translate(-6.107961, -24.280311)" id="g310" fill="url(#linearGradient-14)">
                                <polygon id="path318" points="0 0.133970189 213.87766 0.133970189 213.87766 49.1014311 0 49.1014311"></polygon>
                            </g>
                        </g>
                    </g>
                    <g id="g322-Clipped" transform="translate(1.916667, 7.666667)">
                        <mask id="mask-16" fill="white">
                            <use xlink:href="#path-15"></use>
                        </mask>
                        <g id="path324"></g>
                        <g id="g322" mask="url(#mask-16)">
                            <g transform="translate(-6.698226, -8.283871)" id="g334" fill="url(#linearGradient-17)">
                                <polygon id="path342" points="0 0.129504516 221.516148 0.129504516 221.516148 47.4647168 0 47.4647168"></polygon>
                            </g>
                        </g>
                    </g>
                    <g id="g346-Clipped" transform="translate(7.666667, 0.000000)">
                        <mask id="mask-19" fill="white">
                            <use xlink:href="#path-18"></use>
                        </mask>
                        <g id="path348"></g>
                        <g id="g346" mask="url(#mask-19)">
                            <g transform="translate(-12.894086, -1.991315)" id="g358" fill="url(#linearGradient-20)">
                                <polygon id="path366" points="0 0.124523573 213.209292 0.124523573 213.209292 45.6391507 0 45.6391507"></polygon>
                            </g>
                        </g>
                    </g>
                    <g id="g370-Clipped" transform="translate(34.500000, 7.666667)">
                        <mask id="mask-22" fill="white">
                            <use xlink:href="#path-21"></use>
                        </mask>
                        <g id="path372"></g>
                        <g id="g370" mask="url(#mask-22)">
                            <g transform="translate(-37.737158, -8.629032)" id="g382" fill="url(#linearGradient-23)">
                                <polygon id="path390" points="0 0.129504516 198.796543 0.129504516 198.796543 47.4647168 0 47.4647168"></polygon>
                            </g>
                        </g>
                    </g>
                    <g id="g394-Clipped" transform="translate(36.416667, 23.000000)">
                        <mask id="mask-25" fill="white">
                            <use xlink:href="#path-24"></use>
                        </mask>
                        <g id="path396"></g>
                        <g id="g394" mask="url(#mask-25)">
                            <g transform="translate(-36.793729, -23.162139)" id="g406" fill="url(#linearGradient-26)">
                                <polygon id="path414" points="0 0.127800509 193.826629 0.127800509 193.826629 46.840181 0 46.840181"></polygon>
                            </g>
                        </g>
                    </g>
                    <g id="g418-Clipped" transform="translate(23.000000, 34.500000)">
                        <mask id="mask-28" fill="white">
                            <use xlink:href="#path-27"></use>
                        </mask>
                        <g id="path420"></g>
                        <g id="g418" mask="url(#mask-28)">
                            <g transform="translate(-27.419640, -35.653592)" id="g430" fill="url(#linearGradient-29)">
                                <polygon id="path438" points="0 0.132447801 204.028031 0.132447801 204.028031 48.5434603 0 48.5434603"></polygon>
                            </g>
                        </g>
                    </g>
                </g>
            </g>
        </g>
    </g>
</svg>
