<svg width="120" height="36" xmlns="http://www.w3.org/2000/svg"><defs><linearGradient x1="50.007%" y1="100.236%" x2="50.007%" y2="-1342.587%" id="a"><stop stop-color="#1A1A1A" stop-opacity=".1" offset="0%"/><stop stop-color="#212121" stop-opacity=".151" offset="12.3%"/><stop stop-color="#353535" stop-opacity=".227" offset="30.8%"/><stop stop-color="#575757" stop-opacity=".318" offset="53.2%"/><stop stop-color="#858585" stop-opacity=".421" offset="78.3%"/><stop stop-color="#B3B3B3" stop-opacity=".51" offset="100%"/></linearGradient></defs><g fill-rule="nonzero" fill="none"><path d="M115.773 36H4.205C1.882 36 0 34.095 0 31.743V4.257C0 1.905 1.882 0 4.205 0h111.568c2.324 0 4.205 1.905 4.205 4.257v27.486c0 2.352-1.881 4.257-4.205 4.257z" fill="#A6A6A6"/><path d="M119.191 31.743c0 1.905-1.517 3.44-3.399 3.44H4.225c-1.882 0-3.418-1.535-3.418-3.44V4.257c0-1.905 1.536-3.46 3.418-3.46h111.567c1.882 0 3.418 1.536 3.418 3.46l-.019 27.486z" fill="#000"/><path d="M26.788 17.806c-.02-2.897 2.342-4.316 2.458-4.374-1.344-1.983-3.418-2.255-4.167-2.274-1.748-.195-3.438 1.069-4.34 1.069-.903 0-2.285-1.05-3.764-1.011-1.9.039-3.687 1.147-4.666 2.877-2.016 3.538-.519 8.728 1.42 11.566.961 1.4 2.094 2.955 3.573 2.896 1.44-.058 1.977-.933 3.725-.933 1.728 0 2.227.933 3.744.894 1.556-.02 2.535-1.4 3.457-2.818 1.114-1.594 1.555-3.188 1.575-3.266 0 0-2.977-1.147-3.015-4.626zm-2.842-8.534c.768-.991 1.306-2.313 1.152-3.674-1.133.059-2.535.797-3.341 1.75-.71.855-1.364 2.235-1.19 3.538 1.266.097 2.572-.642 3.379-1.614z" fill="#FFF"/><path d="M115.773 0H56.014l23.408 36h36.351c2.324 0 4.205-1.905 4.205-4.257V4.257c0-2.352-1.881-4.257-4.205-4.257z" fill="url(#a)"/><path d="M47.719 28.36h-2.017l-1.113-3.518h-3.84l-1.057 3.519h-1.959l3.802-11.974h2.362L47.72 28.36zm-3.457-4.995l-.998-3.13c-.116-.31-.308-1.069-.596-2.254h-.038c-.115.505-.307 1.263-.557 2.255l-.98 3.13h3.17zm13.23.564c0 1.477-.402 2.624-1.19 3.48-.71.757-1.574 1.146-2.63 1.146-1.133 0-1.94-.408-2.44-1.224v4.529h-1.881v-9.311c0-.914-.02-1.866-.077-2.838h1.67l.116 1.36h.038c.634-1.03 1.594-1.555 2.88-1.555 1 0 1.844.409 2.516 1.205.672.836.999 1.905.999 3.208zm-1.92.078c0-.836-.191-1.536-.556-2.08-.404-.564-.96-.856-1.652-.856-.46 0-.883.156-1.267.467-.384.31-.634.72-.749 1.244-.058.194-.077.389-.096.583v1.439c0 .622.192 1.166.576 1.594.384.427.883.641 1.479.641.71 0 1.267-.272 1.67-.836.404-.544.596-1.283.596-2.196zm11.753-.078c0 1.477-.404 2.624-1.19 3.48-.711.757-1.576 1.146-2.632 1.146-1.133 0-1.94-.408-2.438-1.224v4.529h-1.902v-9.311c0-.914-.019-1.866-.076-2.838h1.67l.116 1.36h.038c.634-1.03 1.594-1.555 2.88-1.555.999 0 1.844.409 2.516 1.205.672.836 1.018 1.905 1.018 3.208zm-1.94.078c0-.836-.192-1.536-.557-2.08-.403-.564-.96-.856-1.651-.856-.461 0-.883.156-1.268.467-.384.31-.633.72-.748 1.244a2.61 2.61 0 00-.096.583v1.439c0 .622.192 1.166.576 1.594.384.427.883.641 1.478.641.71 0 1.268-.272 1.67-.836.404-.544.596-1.283.596-2.196zm12.904.991c0 1.01-.345 1.847-1.056 2.488-.768.7-1.843 1.05-3.226 1.05-1.267 0-2.285-.253-3.072-.739l.441-1.594c.826.506 1.748.739 2.746.739.71 0 1.268-.156 1.671-.486.403-.33.595-.758.595-1.303 0-.485-.173-.894-.499-1.224-.326-.33-.864-.642-1.632-.933-2.074-.778-3.111-1.925-3.111-3.44 0-.992.365-1.79 1.095-2.411.73-.622 1.709-.933 2.9-.933 1.074 0 1.977.194 2.687.563l-.48 1.556c-.672-.37-1.42-.545-2.265-.545-.673 0-1.191.175-1.575.506-.307.291-.48.66-.48 1.088 0 .467.173.875.537 1.167.308.291.884.583 1.729.933 1.017.408 1.766.894 2.246 1.457.519.545.75 1.225.75 2.061zm6.28-3.83h-2.093v4.2c0 1.068.364 1.593 1.113 1.593.346 0 .615-.02.845-.097l.058 1.458c-.365.136-.864.214-1.479.214-.749 0-1.325-.233-1.747-.7-.423-.467-.634-1.244-.634-2.333V21.15h-1.248v-1.438h1.248v-1.575l1.863-.564v2.158h2.093l-.02 1.439zm9.409 2.8c0 1.322-.384 2.41-1.133 3.265-.787.875-1.824 1.322-3.13 1.322-1.248 0-2.247-.427-2.996-1.263-.749-.836-1.113-1.905-1.113-3.188 0-1.341.384-2.43 1.152-3.285.768-.856 1.805-1.283 3.091-1.283 1.249 0 2.266.427 3.015 1.263.75.817 1.114 1.886 1.114 3.169zm-1.959.039c0-.797-.173-1.478-.499-2.041-.403-.68-.96-1.03-1.709-1.03-.768 0-1.344.35-1.747 1.03-.346.563-.5 1.263-.5 2.08 0 .796.173 1.477.5 2.04.403.68.979 1.03 1.728 1.03.73 0 1.286-.35 1.709-1.049.345-.583.518-1.263.518-2.06zm8.123-2.605a3.09 3.09 0 00-.595-.058c-.672 0-1.19.252-1.536.758-.308.447-.48 1.01-.48 1.71v4.53h-1.902v-5.91c0-.914-.019-1.808-.057-2.721h1.651l.077 1.652h.058a2.89 2.89 0 01.94-1.36 2.358 2.358 0 011.364-.467c.173 0 .326.02.48.039v1.827zm8.488 2.235c0 .292-.02.583-.077.875h-5.684c.019.855.288 1.516.826 1.963.48.409 1.094.603 1.862.603.845 0 1.613-.136 2.304-.408l.289 1.322c-.807.35-1.767.524-2.862.524-1.325 0-2.362-.388-3.11-1.185-.75-.797-1.133-1.847-1.133-3.169 0-1.302.345-2.39 1.056-3.246.73-.933 1.728-1.38 2.976-1.38 1.23 0 2.17.466 2.784 1.38.519.739.769 1.633.769 2.721zm-1.805-.505a2.64 2.64 0 00-.365-1.477c-.327-.545-.826-.797-1.517-.797-.615 0-1.133.252-1.517.777-.308.408-.5.914-.557 1.497h3.956zM40.21 12.149a9.4 9.4 0 01-1.363-.078V6.28a11.256 11.256 0 011.613-.117c2.17 0 3.169 1.089 3.169 2.857 0 2.022-1.191 3.13-3.419 3.13zm.308-5.248c-.288 0-.538.02-.75.058v4.393c.116.02.327.02.634.02 1.421 0 2.228-.817 2.228-2.353 0-1.36-.73-2.118-2.112-2.118zm6.221 5.287c-1.229 0-2.016-.933-2.016-2.177 0-1.303.807-2.236 2.093-2.236 1.21 0 2.016.875 2.016 2.178 0 1.302-.844 2.235-2.093 2.235zm.039-3.732c-.672 0-1.114.641-1.114 1.535 0 .875.442 1.517 1.095 1.517.652 0 1.094-.68 1.094-1.536.02-.875-.422-1.516-1.075-1.516zm9.044-.603l-1.306 4.238h-.864l-.537-1.847c-.135-.447-.25-.913-.346-1.38h-.02a8.531 8.531 0 01-.345 1.38l-.576 1.847h-.864l-1.229-4.238h.96l.48 2.022c.115.486.211.933.288 1.36h.02c.076-.35.172-.797.345-1.36l.595-2.022h.768l.577 1.983c.134.486.25.952.345 1.4h.02c.057-.428.153-.895.287-1.4l.519-1.983h.883zm4.82 4.238h-.922V9.66c0-.758-.288-1.127-.845-1.127-.556 0-.94.485-.94 1.03v2.527h-.941V9.058c0-.369 0-.777-.039-1.205h.826l.038.661h.02c.25-.447.768-.739 1.324-.739.884 0 1.46.68 1.46 1.789l.02 2.527zm2.573 0h-.94V5.89h.94v6.2zm3.4.097c-1.23 0-2.017-.933-2.017-2.177 0-1.303.806-2.236 2.093-2.236 1.21 0 2.016.875 2.016 2.178 0 1.302-.845 2.235-2.093 2.235zm.038-3.732c-.673 0-1.114.641-1.114 1.535 0 .875.441 1.517 1.094 1.517s1.095-.68 1.095-1.536c0-.875-.423-1.516-1.075-1.516zm5.722 3.635l-.077-.486h-.02c-.287.389-.69.583-1.228.583-.749 0-1.287-.525-1.287-1.244 0-1.05.903-1.594 2.458-1.594v-.078c0-.564-.288-.836-.864-.836-.422 0-.768.098-1.094.311l-.192-.622c.384-.252.864-.369 1.44-.369 1.094 0 1.651.583 1.651 1.75v1.555c0 .427.02.758.058 1.01l-.845.02zm-.134-2.119c-1.037 0-1.556.253-1.556.855 0 .447.269.661.634.661.48 0 .922-.37.922-.855v-.661zm5.434 2.119l-.039-.68h-.019c-.269.505-.71.777-1.344.777-1.018 0-1.767-.894-1.767-2.158 0-1.322.769-2.255 1.844-2.255.557 0 .96.195 1.19.584h.02v-2.47h.94v5.055c0 .408.02.797.039 1.147h-.864zm-.135-2.488c0-.603-.384-1.108-.979-1.108-.691 0-1.114.622-1.114 1.496 0 .856.442 1.439 1.095 1.439.595 0 .998-.525.998-1.128v-.7zm6.856 2.585c-1.23 0-2.016-.933-2.016-2.177 0-1.303.806-2.236 2.093-2.236 1.21 0 2.016.875 2.016 2.178 0 1.302-.845 2.235-2.093 2.235zm.038-3.732c-.672 0-1.094.641-1.094 1.535 0 .875.441 1.517 1.094 1.517s1.095-.68 1.095-1.536c-.02-.875-.442-1.516-1.095-1.516zm7.067 3.635h-.941V9.66c0-.758-.288-1.127-.845-1.127-.557 0-.922.485-.922 1.03v2.527h-.94V9.058c0-.369 0-.777-.04-1.205h.827l.038.661h.02c.249-.447.767-.739 1.324-.739.884 0 1.46.68 1.46 1.789v2.527h.019zm6.26-3.538h-1.018v2.06c0 .525.173.778.538.778.173 0 .307-.02.422-.039l.02.72c-.173.077-.423.097-.73.097-.73 0-1.172-.409-1.172-1.478V8.553h-.614v-.7h.614v-.777l.922-.273v1.05h1.018v.7zm4.935 3.538h-.922V9.68c0-.759-.288-1.147-.845-1.147-.48 0-.94.33-.94 1.01v2.566h-.922V5.89h.921v2.546h.02c.288-.466.71-.7 1.267-.7.883 0 1.421.7 1.421 1.808v2.547zm5.05-1.886h-2.803c.019.797.537 1.264 1.325 1.264.422 0 .787-.078 1.133-.195l.153.661c-.403.175-.864.253-1.402.253-1.305 0-2.093-.836-2.093-2.138 0-1.303.788-2.275 1.978-2.275 1.076 0 1.748.797 1.748 2.022 0 .117 0 .253-.039.408zm-.845-.68c0-.661-.326-1.128-.921-1.128-.538 0-.96.467-1.018 1.128h1.94z" fill="#FFF"/></g></svg>