<svg width="120" height="36" xmlns="http://www.w3.org/2000/svg"><defs><linearGradient x1="60.753%" y1="4.84%" x2="26.701%" y2="71.968%" id="a"><stop stop-color="#00A0FF" offset="0%"/><stop stop-color="#00A1FF" offset=".7%"/><stop stop-color="#00BEFF" offset="26%"/><stop stop-color="#00D2FF" offset="51.2%"/><stop stop-color="#00DFFF" offset="76%"/><stop stop-color="#00E3FF" offset="100%"/></linearGradient><linearGradient x1="107.724%" y1="49.424%" x2="-130.67%" y2="49.424%" id="b"><stop stop-color="#FFE000" offset="0%"/><stop stop-color="#FFBD00" offset="40.9%"/><stop stop-color="orange" offset="77.5%"/><stop stop-color="#FF9C00" offset="100%"/></linearGradient><linearGradient x1="86.389%" y1="30.347%" x2="-49.886%" y2="138.166%" id="c"><stop stop-color="#FF3A44" offset="0%"/><stop stop-color="#C31162" offset="100%"/></linearGradient><linearGradient x1="-18.581%" y1="-13.235%" x2="42.275%" y2="34.69%" id="d"><stop stop-color="#32A071" offset="0%"/><stop stop-color="#2DA771" offset="6.9%"/><stop stop-color="#15CF74" offset="47.6%"/><stop stop-color="#06E775" offset="80.1%"/><stop stop-color="#00F076" offset="100%"/></linearGradient></defs><g fill-rule="nonzero" fill="none"><path d="M115.556 36H4.444C1.956 36 0 34.02 0 31.5v-27C0 1.98 1.956 0 4.444 0h111.112C118.044 0 120 1.98 120 4.5v27c0 2.52-1.956 4.5-4.444 4.5z" fill="#000"/><path d="M115.556.72c2.044 0 3.733 1.71 3.733 3.78v27c0 2.07-1.689 3.78-3.733 3.78H4.444C2.4 35.28.711 33.57.711 31.5v-27C.711 2.43 2.4.72 4.444.72h111.112m0-.72H4.444C1.956 0 0 2.07 0 4.5v27C0 34.02 1.956 36 4.444 36h111.112c2.488 0 4.444-1.98 4.444-4.5v-27c0-2.43-1.956-4.5-4.444-4.5z" fill="#A6A6A6"/><path d="M42.133 9.18c0 .72-.177 1.35-.622 1.8-.533.54-1.155.81-1.955.81s-1.423-.27-1.956-.81c-.533-.54-.8-1.17-.8-1.98s.267-1.44.8-1.98 1.156-.81 1.956-.81c.355 0 .71.09 1.066.27.356.18.622.36.8.63l-.444.45c-.356-.45-.8-.63-1.422-.63-.534 0-1.067.18-1.423.63-.444.36-.622.9-.622 1.53s.178 1.17.622 1.53c.445.36.89.63 1.423.63.622 0 1.066-.18 1.51-.63a1.5 1.5 0 00.445-1.08h-1.955v-.72h2.577v.36h0zm4.09-2.25h-2.4v1.71h2.221v.63h-2.222v1.71h2.4v.72h-3.11V6.3h3.11v.63zm2.933 4.77h-.712V6.93h-1.51V6.3h3.733v.63h-1.511v4.77zm4.088 0V6.3h.712v5.4h-.712zm3.734 0h-.711V6.93h-1.511V6.3H58.4v.63h-1.511v4.77h.089zm8.444-.72c-.533.54-1.155.81-1.955.81s-1.423-.27-1.956-.81c-.533-.54-.8-1.17-.8-1.98s.267-1.44.8-1.98 1.156-.81 1.956-.81 1.422.27 1.955.81c.534.54.8 1.17.8 1.98s-.266 1.44-.8 1.98zm-3.378-.45c.356.36.89.63 1.423.63s1.066-.18 1.422-.63c.355-.36.622-.9.622-1.53s-.178-1.17-.622-1.53c-.356-.36-.889-.63-1.422-.63-.534 0-1.067.18-1.423.63-.355.36-.622.9-.622 1.53s.178 1.17.622 1.53zM67.2 11.7V6.3h.8l2.578 4.23V6.3h.71v5.4h-.71l-2.756-4.41v4.41H67.2h0z" stroke="#FFF" stroke-width=".2" fill="#FFF"/><path d="M60.533 19.62c-2.133 0-3.822 1.62-3.822 3.87 0 2.16 1.689 3.87 3.822 3.87 2.134 0 3.823-1.62 3.823-3.87 0-2.34-1.69-3.87-3.823-3.87zm0 6.12c-1.155 0-2.133-.99-2.133-2.34 0-1.35.978-2.34 2.133-2.34 1.156 0 2.134.9 2.134 2.34 0 1.35-.978 2.34-2.134 2.34zm-8.266-6.12c-2.134 0-3.823 1.62-3.823 3.87 0 2.16 1.69 3.87 3.823 3.87s3.822-1.62 3.822-3.87c0-2.34-1.689-3.87-3.822-3.87zm0 6.12c-1.156 0-2.134-.99-2.134-2.34 0-1.35.978-2.34 2.134-2.34 1.155 0 2.133.9 2.133 2.34 0 1.35-.978 2.34-2.133 2.34zM42.4 20.79v1.62h3.822c-.089.9-.444 1.62-.889 2.07-.533.54-1.422 1.17-2.933 1.17-2.4 0-4.178-1.89-4.178-4.32 0-2.43 1.867-4.32 4.178-4.32 1.244 0 2.222.54 2.933 1.17l1.156-1.17c-.978-.9-2.222-1.62-4-1.62-3.2 0-5.956 2.7-5.956 5.94s2.756 5.94 5.956 5.94c1.778 0 3.022-.54 4.089-1.71C47.644 24.48 48 22.95 48 21.78c0-.36 0-.72-.089-.99H42.4zm40.356 1.26c-.356-.9-1.245-2.43-3.2-2.43C77.6 19.62 76 21.15 76 23.49c0 2.16 1.6 3.87 3.733 3.87 1.69 0 2.756-1.08 3.111-1.71l-1.244-.9c-.444.63-.978 1.08-1.867 1.08s-1.422-.36-1.866-1.17l5.066-2.16-.177-.45zM77.6 23.31c0-1.44 1.156-2.25 1.956-2.25.622 0 1.244.36 1.422.81L77.6 23.31zM73.422 27h1.69V15.75h-1.69V27zm-2.666-6.57c-.445-.45-1.156-.9-2.045-.9-1.867 0-3.644 1.71-3.644 3.87s1.689 3.78 3.644 3.78c.889 0 1.6-.45 1.956-.9h.089v.54c0 1.44-.8 2.25-2.045 2.25-.978 0-1.689-.72-1.867-1.35l-1.422.63c.445.99 1.511 2.25 3.378 2.25 1.956 0 3.556-1.17 3.556-3.96V19.8h-1.6v.63zM68.8 25.74c-1.156 0-2.133-.99-2.133-2.34 0-1.35.977-2.34 2.133-2.34 1.156 0 2.044.99 2.044 2.34 0 1.35-.888 2.34-2.044 2.34zm21.689-9.99h-4V27h1.689v-4.23h2.31c1.868 0 3.645-1.35 3.645-3.51 0-2.16-1.777-3.51-3.644-3.51zm.089 5.4h-2.4v-3.87h2.4c1.244 0 1.955 1.08 1.955 1.89-.089.99-.8 1.98-1.955 1.98zm10.222-1.62c-1.244 0-2.489.54-2.933 1.71l1.51.63c.356-.63.89-.81 1.512-.81.889 0 1.689.54 1.778 1.44v.09c-.267-.18-.978-.45-1.69-.45-1.6 0-3.2.9-3.2 2.52 0 1.53 1.334 2.52 2.756 2.52 1.156 0 1.69-.54 2.134-1.08h.089v.9h1.6v-4.32c-.178-1.98-1.69-3.15-3.556-3.15zm-.178 6.21c-.533 0-1.333-.27-1.333-.99 0-.9.978-1.17 1.778-1.17.71 0 1.066.18 1.51.36-.177 1.08-1.066 1.8-1.955 1.8zm9.334-5.94l-1.867 4.86H108l-1.956-4.86h-1.777l2.933 6.84-1.689 3.78h1.689l4.533-10.62h-1.777zM95.022 27h1.69V15.75h-1.69V27z" fill="#FFF"/><path d="M9.244 6.75c-.266.27-.355.72-.355 1.26V27.9c0 .54.178.99.444 1.26l.09.09 11.021-11.16v-.18L9.244 6.75z" fill="url(#a)"/><path d="M24 21.87l-3.644-3.69v-.27L24 14.22l.089.09 4.355 2.52c1.245.72 1.245 1.89 0 2.61L24 21.87z" fill="url(#b)"/><path d="M24.089 21.78L20.356 18 9.244 29.25c.445.45 1.067.45 1.867.09l12.978-7.56" fill="url(#c)"/><path d="M24.089 14.22L11.11 6.75c-.8-.45-1.422-.36-1.867.09L20.356 18l3.733-3.78z" fill="url(#d)"/><g fill="#000"><path d="M24 21.69l-12.889 7.38c-.711.45-1.333.36-1.778 0l-.089.09.09.09c.444.36 1.066.45 1.777 0L24 21.69z" opacity=".2"/><path d="M9.244 29.07c-.266-.27-.355-.72-.355-1.26v.09c0 .54.178.99.444 1.26v-.09h-.089zm19.2-9.9L24 21.69l.089.09 4.355-2.52c.623-.36.89-.81.89-1.26 0 .45-.356.81-.89 1.17z" opacity=".12"/></g><path d="M11.111 6.84l17.333 9.99c.534.36.89.72.89 1.17 0-.45-.267-.9-.89-1.26L11.111 6.75C9.867 6.03 8.89 6.57 8.89 8.01v.09c0-1.35.978-1.98 2.222-1.26z" fill="#FFF" opacity=".25"/></g></svg>