<?xml version="1.0" encoding="UTF-8"?>
<svg width="22px" height="24px" viewBox="0 0 22 24" version="1.1" xmlns="http://www.w3.org/2000/svg" xmlns:xlink="http://www.w3.org/1999/xlink">
    <title>professional-network-linkedin</title>
    <g id="Page-1" stroke="none" stroke-width="1" fill="none" fill-rule="evenodd">
        <g id="Desktop-HD" transform="translate(-809.000000, -312.000000)" fill="#161038">
            <g id="🎨-Colour-fill" transform="translate(808.000000, 312.000000)">
                <path d="M6,8.15000002 C6.27614237,8.15000002 6.5,8.37385765 6.5,8.65000002 L6.5,23.0500001 C6.5,23.3261424 6.27614237,23.5500001 6,23.5500001 L1.5,23.5500001 C1.22385763,23.5500001 1,23.3261424 1,23.0500001 L1,8.65000002 C1,8.37385765 1.22385763,8.15000002 1.5,8.15000002 L6,8.15000002 Z M17.1344003,7.59751069 L17.379,7.60000002 C20.6570001,7.60000002 23.0000001,9.61300002 23.0000001,13.76 L23.0000001,13.76 L23.0000001,23.0000001 C23.0000001,23.3037567 22.7537567,23.5500001 22.4500001,23.5500001 L22.4500001,23.5500001 L19.15,23.5500001 C18.8462434,23.5500001 18.6,23.3037567 18.6,23.0000001 L18.6,23.0000001 L18.6,14.75 C18.6,13.231217 17.3687831,12 15.85,12 C14.331217,12 13.1,13.231217 13.1,14.75 L13.1,14.75 L13.1,23.0000001 C13.1,23.3037567 12.8537566,23.5500001 12.55,23.5500001 L12.55,23.5500001 L9.25000002,23.5500001 C8.94624341,23.5500001 8.70000002,23.3037567 8.70000002,23.0000001 L8.70000002,23.0000001 L8.70000002,8.70000002 C8.70000002,8.39624341 8.94624341,8.15000002 9.25000002,8.15000002 L9.25000002,8.15000002 L12.55,8.15000002 C12.8537566,8.15000002 13.1,8.39624341 13.1,8.70000002 C13.0992289,8.88867008 13.2159808,9.05788083 13.3926396,9.12412786 C13.5692983,9.19037489 13.768524,9.13965576 13.892,8.99700002 C14.8048045,8.05966253 16.0715113,7.55218063 17.379,7.60000002 Z M3.72800001,0.45 C5.23463281,0.45 6.45600001,1.68121694 6.45600001,3.20000001 C6.45600001,4.71878307 5.23463281,5.95 3.72800001,5.95 C2.22136721,5.95 1,4.71878307 1,3.20000001 C1,1.68121694 2.22136721,0.45 3.72800001,0.45 Z"></path>
            </g>
        </g>
    </g>
</svg>